<?xml version="1.0" encoding="utf-8"?>
<!-- Generator: Adobe Illustrator 23.0.2, SVG Export Plug-In . SVG Version: 6.00 Build 0)  -->
<svg version="1.2" baseProfile="tiny" id="Capa_1" xmlns="http://www.w3.org/2000/svg" xmlns:xlink="http://www.w3.org/1999/xlink"
	 x="0px" y="0px" viewBox="0 0 512 512" xml:space="preserve">
<g>
	<g>
		<path d="M267.3,241.2h-22.5c-4.3,0-7.7-3.5-7.7-7.7v-11.3c0-4.3,3.5-7.7,7.7-7.7h22.5c4.3,0,7.7,3.5,7.7,7.7
			c0,8.2,6.6,14.8,14.8,14.8s14.8-6.6,14.8-14.8c0-19.4-14.8-35.3-33.8-37.1v-7.9c0-8.2-6.6-14.8-14.8-14.8s-14.8,6.6-14.8,14.8v7.9
			c-18.9,1.8-33.8,17.7-33.8,37.1v11.3c0,20.6,16.7,37.3,37.3,37.3h22.5c4.3,0,7.7,3.5,7.7,7.7v11.3c0,4.3-3.5,7.7-7.7,7.7h-22.5
			c-4.3,0-7.7-3.5-7.7-7.7c0-8.2-6.6-14.8-14.8-14.8c-8.2,0-14.8,6.6-14.8,14.8c0,19.4,14.8,35.3,33.8,37.1v7.9
			c0,8.2,6.6,14.8,14.8,14.8s14.8-6.6,14.8-14.8v-7.9c18.9-1.8,33.8-17.7,33.8-37.1v-11.3C304.5,258,287.8,241.2,267.3,241.2z"/>
	</g>
</g>
<g>
	<g>
		<path d="M497.2,83.7H14.8C6.6,83.7,0,90.3,0,98.5v315.1c0,8.2,6.6,14.8,14.8,14.8h482.5c8.2,0,14.8-6.6,14.8-14.8V98.5
			C512,90.3,505.4,83.7,497.2,83.7z M482.5,398.8H29.5V113.2h452.9L482.5,398.8L482.5,398.8z"/>
	</g>
</g>
<g>
	<g>
		<path d="M118.2,142.8H73.8c-8.2,0-14.8,6.6-14.8,14.8v39.4c0,8.2,6.6,14.8,14.8,14.8s14.8-6.6,14.8-14.8v-24.6h29.5
			c8.2,0,14.8-6.6,14.8-14.8S126.3,142.8,118.2,142.8z"/>
	</g>
</g>
<g>
	<g>
		<path d="M438.2,142.8h-44.3c-8.2,0-14.8,6.6-14.8,14.8s6.6,14.8,14.8,14.8h29.5v24.6c0,8.2,6.6,14.8,14.8,14.8s14.8-6.6,14.8-14.8
			v-39.4C452.9,149.4,446.3,142.8,438.2,142.8z"/>
	</g>
</g>
<g>
	<g>
		<path d="M118.2,339.7H88.6v-24.6c0-8.2-6.6-14.8-14.8-14.8s-14.8,6.6-14.8,14.8v39.4c0,8.2,6.6,14.8,14.8,14.8h44.3
			c8.2,0,14.8-6.6,14.8-14.8S126.3,339.7,118.2,339.7z"/>
	</g>
</g>
<g>
	<g>
		<path d="M438.2,300.3c-8.2,0-14.8,6.6-14.8,14.8v24.6h-29.5c-8.2,0-14.8,6.6-14.8,14.8s6.6,14.8,14.8,14.8h44.3
			c8.2,0,14.8-6.6,14.8-14.8v-39.4C452.9,306.9,446.3,300.3,438.2,300.3z"/>
	</g>
</g>
</svg>
