<?xml version="1.0" encoding="utf-8"?>
<!-- Generator: Adobe Illustrator 23.0.2, SVG Export Plug-In . SVG Version: 6.00 Build 0)  -->
<svg version="1.2" baseProfile="tiny" id="Capa_1" xmlns="http://www.w3.org/2000/svg" xmlns:xlink="http://www.w3.org/1999/xlink"
	 x="0px" y="0px" viewBox="0 0 512 512" xml:space="preserve">
<path fill="#231F20" d="M479.05,279.93H32.95c-18.21,0-32.97-14.76-32.97-32.97v0c0-18.21,14.76-32.97,32.97-32.97h446.09
	c18.21,0,32.97,14.76,32.97,32.97v0C512.01,265.17,497.25,279.93,479.05,279.93z"/>
<path fill="#231F20" d="M479.05,114.93H32.95c-18.21,0-32.97-14.76-32.97-32.97v0C-0.01,63.76,14.75,49,32.95,49h446.09
	c18.21,0,32.97,14.76,32.97,32.97v0C512.01,100.17,497.25,114.93,479.05,114.93z"/>
<path fill="#231F20" d="M479.05,443.47H32.95c-18.21,0-32.97-14.76-32.97-32.97v0c0-18.21,14.76-32.97,32.97-32.97h446.09
	c18.21,0,32.97,14.76,32.97,32.97v0C512.01,428.71,497.25,443.47,479.05,443.47z"/>
</svg>
