<svg id="Capa_1" data-name="Capa 1" xmlns="http://www.w3.org/2000/svg" viewBox="0 0 494.64 489.93"><defs><style>.cls-1{fill:#030104;}</style></defs><title>Lista</title><path class="cls-1" d="M492,79.22a19.11,19.11,0,0,0-12.64-9L199.17,2.71a19,19,0,0,0-21.54,12.14L70.83,286.16l35.66,13,101.21-258L451.14,103.3c-15.2,47.13-51.38,145.51-86.06,237.11-30.24,79.92-47.63,107.29-80.7,112.88a.2.2,0,0,1-.08-.14c-67.59,9.48-66.37-76.68-66.37-76.68L2.08,289.28c-15.34,97.22,59.36,120.6,59.36,120.6l158,71.75S244.18,493.4,271,492.2c72.32-1.71,97.74-54.22,129.58-138.36,46-121.59,92.71-257.83,93.17-259.28A18.81,18.81,0,0,0,492,79.22Z" transform="translate(0 -2.36)"/><path class="cls-1" d="M364.27,188.63a18.9,18.9,0,0,0,23.31-13.28A19,19,0,0,0,374.26,152L292,126.65a19,19,0,1,0-10,36.61Z" transform="translate(0 -2.36)"/><path class="cls-1" d="M235.78,215.94a19,19,0,0,0,12,24l81.81,29.24a18.73,18.73,0,0,0,5.9,1,19,19,0,0,0,6.11-37L259.82,204A19,19,0,0,0,235.78,215.94Z" transform="translate(0 -2.36)"/><path class="cls-1" d="M228.59,283.18a19,19,0,1,0-11.82,36l82,29.11a18.28,18.28,0,0,0,5.94,1,19,19,0,0,0,5.89-37Z" transform="translate(0 -2.36)"/><path class="cls-1" d="M225.55,104.52c11.62,0,21,9.16,21,20.46s-9.43,20.45-21,20.45S204.5,136.28,204.5,125,213.93,104.52,225.55,104.52Z" transform="translate(0 -2.36)"/><path class="cls-1" d="M195.78,180.57c11.63,0,21.05,9.16,21.05,20.45s-9.42,20.44-21.05,20.44S174.73,212.3,174.73,201,184.16,180.57,195.78,180.57Z" transform="translate(0 -2.36)"/><path class="cls-1" d="M164,259c11.63,0,21.06,9.17,21.06,20.48S175.66,300,164,300,143,290.81,143,279.52,152.41,259,164,259Z" transform="translate(0 -2.36)"/></svg>