<?xml version="1.0" encoding="utf-8"?>
<!-- Generator: Adobe Illustrator 23.0.2, SVG Export Plug-In . SVG Version: 6.00 Build 0)  -->
<svg version="1.2" baseProfile="tiny" id="Layer_1" xmlns="http://www.w3.org/2000/svg" xmlns:xlink="http://www.w3.org/1999/xlink"
	 x="0px" y="0px" viewBox="0 0 792 612" xml:space="preserve">
<g>
	<rect x="120.24" y="47" width="551.53" height="518.01"/>
	<polygon points="440.24,466.76 442.93,466.76 441.62,463.47 	"/>
	<path d="M415.79,461.95c0-0.45-0.09-0.64-0.13-0.7c-0.11-0.17-0.23-0.28-0.39-0.36c-0.25-0.13-0.53-0.21-0.86-0.26
		c-0.41-0.05-0.83-0.09-1.26-0.09h-1.39v2.8h0.38c0.52,0,1.06-0.01,1.62-0.04c0.46-0.03,0.87-0.1,1.24-0.23
		c0.26-0.09,0.47-0.23,0.64-0.42C415.72,462.57,415.79,462.34,415.79,461.95z"/>
	<polygon points="357.9,466.76 360.59,466.76 359.28,463.47 	"/>
	<path d="M251.11,461.95c0-0.45-0.09-0.64-0.13-0.7c-0.1-0.16-0.23-0.28-0.39-0.36c-0.25-0.13-0.53-0.21-0.86-0.26
		c-0.41-0.05-0.83-0.09-1.26-0.09h-1.39v2.8h0.39c0.52,0,1.06-0.01,1.62-0.04c0.46-0.03,0.87-0.1,1.23-0.23
		c0.27-0.09,0.47-0.23,0.64-0.42C251.03,462.57,251.11,462.34,251.11,461.95z"/>
	<path d="M252.55,467.2c0.75-0.32,1.39-0.76,1.92-1.31c0.99-1.02,1.49-2.34,1.49-3.94c0-1.3-0.27-2.39-0.81-3.22
		c-0.52-0.81-1.21-1.44-2.06-1.87c-0.77-0.39-1.64-0.64-2.57-0.75c-0.85-0.1-1.7-0.15-2.55-0.15h-4.24c-0.76,0-1.37,0.61-1.37,1.37
		v16.76c0,0.76,0.61,1.37,1.37,1.37h1.97c0.76,0,1.37-0.61,1.37-1.37v-6.16h0.38l4.1,6.86c0.25,0.41,0.7,0.67,1.18,0.67h2.41
		c0.5,0,0.95-0.27,1.2-0.7c0.24-0.43,0.23-0.97-0.03-1.39L252.55,467.2z M252.74,474.1l-4.5-7.53h-2.53v7.53h-1.97v-16.76h4.24
		c0.8,0,1.59,0.05,2.38,0.14c0.79,0.09,1.49,0.3,2.12,0.61c0.63,0.32,1.13,0.78,1.52,1.39c0.39,0.61,0.59,1.43,0.59,2.47
		c0,1.23-0.37,2.22-1.1,2.98c-0.74,0.76-1.75,1.24-3.05,1.44l4.71,7.72H252.74z"/>
	<path d="M252,463.55c0.32-0.37,0.48-0.9,0.48-1.6c0-0.6-0.12-1.08-0.35-1.44c-0.23-0.36-0.54-0.64-0.92-0.84
		c-0.38-0.2-0.81-0.33-1.29-0.39c-0.48-0.06-0.96-0.09-1.44-0.09h-2.77v5.54h1.76c0.55,0,1.11-0.01,1.7-0.05
		c0.59-0.03,1.12-0.13,1.62-0.31C251.28,464.19,251.68,463.92,252,463.55z M249.09,463.31c-0.56,0.03-1.1,0.04-1.62,0.04h-0.39v-2.8
		h1.39c0.43,0,0.85,0.03,1.26,0.09c0.33,0.04,0.6,0.13,0.86,0.26c0.16,0.08,0.29,0.2,0.39,0.36c0.04,0.06,0.13,0.25,0.13,0.7
		c0,0.39-0.08,0.61-0.15,0.7c-0.16,0.19-0.37,0.33-0.64,0.42C249.96,463.2,249.56,463.28,249.09,463.31z"/>
	<path d="M253.49,464.93c0.73-0.76,1.1-1.75,1.1-2.98c0-1.04-0.2-1.87-0.59-2.47c-0.39-0.61-0.9-1.07-1.52-1.39
		c-0.62-0.31-1.33-0.52-2.12-0.61c-0.79-0.09-1.58-0.14-2.38-0.14h-4.24v16.76h1.97v-7.53h2.53l4.5,7.53h2.41l-4.71-7.72
		C251.74,466.17,252.76,465.69,253.49,464.93z M247.47,464.72h-1.76v-5.54h2.77c0.48,0,0.96,0.03,1.44,0.09
		c0.48,0.07,0.91,0.2,1.29,0.39c0.38,0.2,0.69,0.48,0.92,0.84c0.23,0.36,0.35,0.84,0.35,1.44c0,0.69-0.16,1.23-0.48,1.6
		c-0.32,0.37-0.73,0.64-1.22,0.82c-0.49,0.17-1.03,0.28-1.62,0.31C248.58,464.71,248.01,464.72,247.47,464.72z"/>
	<path d="M253.49,464.93c0.73-0.76,1.1-1.75,1.1-2.98c0-1.04-0.2-1.87-0.59-2.47c-0.39-0.61-0.9-1.07-1.52-1.39
		c-0.62-0.31-1.33-0.52-2.12-0.61c-0.79-0.09-1.58-0.14-2.38-0.14h-4.24v16.76h1.97v-7.53h2.53l4.5,7.53h2.41l-4.71-7.72
		C251.74,466.17,252.76,465.69,253.49,464.93z M247.47,464.72h-1.76v-5.54h2.77c0.48,0,0.96,0.03,1.44,0.09
		c0.48,0.07,0.91,0.2,1.29,0.39c0.38,0.2,0.69,0.48,0.92,0.84c0.23,0.36,0.35,0.84,0.35,1.44c0,0.69-0.16,1.23-0.48,1.6
		c-0.32,0.37-0.73,0.64-1.22,0.82c-0.49,0.17-1.03,0.28-1.62,0.31C248.58,464.71,248.01,464.72,247.47,464.72z"/>
	<path d="M282.32,470.88h-7.51v-3.22h6.52c0.76,0,1.37-0.61,1.37-1.37v-1.85c0-0.76-0.61-1.37-1.37-1.37h-6.52v-2.51h7.09
		c0.76,0,1.37-0.61,1.37-1.37v-1.84c0-0.76-0.61-1.37-1.37-1.37h-10.43c-0.76,0-1.37,0.61-1.37,1.37v16.76
		c0,0.76,0.61,1.37,1.37,1.37h10.85c0.76,0,1.37-0.61,1.37-1.37v-1.85C283.69,471.49,283.08,470.88,282.32,470.88z M282.32,474.1
		h-10.85v-16.76h10.43v1.85h-8.46v5.26h7.9v1.85h-7.9v5.96h8.88V474.1z"/>
	<polygon points="273.44,466.29 281.34,466.29 281.34,464.44 273.44,464.44 273.44,459.18 281.9,459.18 281.9,457.34 271.47,457.34 
		271.47,474.1 282.32,474.1 282.32,472.25 273.44,472.25 	"/>
	<polygon points="273.44,466.29 281.34,466.29 281.34,464.44 273.44,464.44 273.44,459.18 281.9,459.18 281.9,457.34 271.47,457.34 
		271.47,474.1 282.32,474.1 282.32,472.25 273.44,472.25 	"/>
	<path d="M309.15,465.14c-0.56-0.44-1.22-0.81-1.94-1.1c-0.63-0.25-1.28-0.48-1.95-0.69c-0.59-0.19-1.1-0.37-1.51-0.56
		c-0.4-0.18-0.62-0.34-0.73-0.43c-0.11-0.1-0.18-0.19-0.22-0.28c-0.05-0.13-0.08-0.3-0.08-0.5c0-0.25,0.04-0.46,0.13-0.61
		c0.1-0.17,0.21-0.3,0.37-0.4c0.2-0.14,0.45-0.24,0.73-0.31c0.68-0.18,1.42-0.16,2.09,0.13c0.29,0.13,0.51,0.33,0.7,0.64
		c0.21,0.34,0.56,0.58,0.97,0.64c0.4,0.06,0.81-0.06,1.11-0.33l1.62-1.42c0.56-0.49,0.63-1.34,0.14-1.91
		c-0.76-0.91-1.65-1.55-2.64-1.92c-1.65-0.63-3.73-0.72-5.57-0.16c-0.83,0.26-1.58,0.64-2.23,1.13c-0.7,0.53-1.25,1.19-1.65,1.96
		c-0.42,0.79-0.63,1.72-0.63,2.74c0,0.88,0.14,1.66,0.43,2.32c0.28,0.67,0.68,1.25,1.18,1.73c0.47,0.45,1.03,0.84,1.65,1.14
		c0.56,0.28,1.17,0.52,1.8,0.72l1.92,0.66c0.44,0.15,0.79,0.31,1.06,0.49c0.16,0.11,0.28,0.22,0.34,0.33
		c0.03,0.06,0.1,0.23,0.1,0.63c0,0.29-0.08,0.45-0.13,0.55c-0.12,0.2-0.27,0.36-0.46,0.5c-0.22,0.15-0.47,0.28-0.76,0.36
		c-0.85,0.25-1.6,0.15-2.32-0.2c-0.4-0.19-0.7-0.47-0.92-0.85c-0.2-0.35-0.55-0.59-0.95-0.66c-0.41-0.07-0.81,0.04-1.12,0.29
		l-1.69,1.4c-0.54,0.45-0.66,1.23-0.27,1.81c0.37,0.56,0.81,1.04,1.33,1.42c0.47,0.35,1,0.65,1.56,0.89
		c0.54,0.22,1.1,0.38,1.68,0.48c0.56,0.1,1.13,0.15,1.69,0.15c0.87,0,1.72-0.12,2.55-0.35c0.86-0.24,1.64-0.61,2.31-1.12
		c0.7-0.53,1.27-1.19,1.69-1.98c0.43-0.81,0.65-1.76,0.65-2.82c0-1.03-0.19-1.92-0.56-2.66
		C310.26,466.23,309.77,465.62,309.15,465.14z M309.32,471.8c-0.33,0.62-0.76,1.13-1.3,1.53c-0.54,0.4-1.16,0.7-1.86,0.9
		c-0.71,0.2-1.43,0.3-2.18,0.3c-0.48,0-0.97-0.04-1.45-0.13c-0.48-0.09-0.95-0.22-1.4-0.4c-0.44-0.18-0.86-0.42-1.25-0.71
		c-0.39-0.29-0.73-0.65-1.01-1.08l1.69-1.4c0.36,0.62,0.86,1.08,1.5,1.4c0.64,0.32,1.32,0.47,2.04,0.47c0.42,0,0.85-0.06,1.28-0.19
		c0.43-0.13,0.82-0.31,1.16-0.55c0.34-0.24,0.63-0.55,0.84-0.91c0.22-0.36,0.33-0.78,0.33-1.26c0-0.52-0.09-0.94-0.26-1.27
		c-0.17-0.32-0.44-0.6-0.8-0.84c-0.36-0.24-0.81-0.45-1.36-0.64c-0.55-0.19-1.19-0.41-1.92-0.66c-0.59-0.19-1.14-0.41-1.64-0.65
		c-0.5-0.24-0.93-0.54-1.3-0.9c-0.37-0.35-0.66-0.78-0.87-1.28c-0.21-0.5-0.31-1.09-0.31-1.79c0-0.8,0.16-1.51,0.47-2.11
		c0.31-0.6,0.73-1.1,1.27-1.5c0.53-0.4,1.13-0.7,1.8-0.91c0.67-0.21,1.38-0.31,2.11-0.31c0.94,0,1.8,0.15,2.57,0.44
		c0.77,0.29,1.46,0.8,2.08,1.53l-1.62,1.42c-0.33-0.54-0.77-0.93-1.31-1.17c-0.55-0.24-1.12-0.37-1.71-0.37
		c-0.44,0-0.87,0.06-1.29,0.16c-0.42,0.11-0.8,0.28-1.14,0.5c-0.34,0.22-0.61,0.51-0.81,0.88c-0.2,0.36-0.3,0.79-0.3,1.28
		c0,0.38,0.06,0.71,0.18,1c0.12,0.29,0.31,0.56,0.57,0.79c0.27,0.24,0.63,0.46,1.08,0.66c0.45,0.21,1.01,0.41,1.66,0.62
		c0.64,0.21,1.26,0.43,1.86,0.66c0.6,0.24,1.13,0.54,1.59,0.9c0.46,0.36,0.83,0.82,1.1,1.36c0.27,0.54,0.41,1.23,0.41,2.05
		C309.81,470.46,309.65,471.18,309.32,471.8z"/>
	<path d="M308.3,466.21c-0.46-0.36-0.99-0.66-1.59-0.9c-0.6-0.24-1.22-0.46-1.86-0.66c-0.66-0.21-1.21-0.41-1.66-0.62
		c-0.45-0.21-0.81-0.43-1.08-0.66c-0.26-0.24-0.46-0.5-0.57-0.79c-0.12-0.29-0.18-0.63-0.18-1c0-0.49,0.1-0.92,0.3-1.28
		c0.2-0.36,0.47-0.65,0.81-0.88c0.34-0.22,0.72-0.39,1.14-0.5c0.42-0.11,0.85-0.16,1.29-0.16c0.59,0,1.17,0.12,1.71,0.37
		c0.55,0.24,0.98,0.63,1.31,1.17l1.62-1.42c-0.61-0.73-1.3-1.23-2.08-1.53c-0.77-0.29-1.63-0.44-2.57-0.44
		c-0.73,0-1.44,0.1-2.11,0.31c-0.67,0.21-1.27,0.51-1.8,0.91c-0.53,0.4-0.95,0.9-1.27,1.5c-0.31,0.6-0.47,1.3-0.47,2.11
		c0,0.7,0.1,1.29,0.31,1.79c0.21,0.5,0.5,0.93,0.87,1.28c0.37,0.35,0.8,0.65,1.3,0.9c0.5,0.25,1.05,0.46,1.64,0.65
		c0.74,0.25,1.38,0.47,1.92,0.66c0.55,0.19,1,0.4,1.36,0.64c0.36,0.24,0.62,0.52,0.8,0.84c0.17,0.33,0.26,0.75,0.26,1.27
		c0,0.48-0.11,0.89-0.33,1.26c-0.22,0.36-0.5,0.67-0.84,0.91c-0.34,0.24-0.73,0.43-1.16,0.55c-0.43,0.13-0.86,0.19-1.28,0.19
		c-0.72,0-1.4-0.16-2.04-0.47c-0.64-0.31-1.14-0.78-1.5-1.4l-1.69,1.4c0.28,0.43,0.62,0.78,1.01,1.08c0.39,0.29,0.81,0.53,1.25,0.71
		c0.45,0.18,0.91,0.32,1.4,0.4c0.49,0.09,0.97,0.13,1.45,0.13c0.75,0,1.48-0.1,2.18-0.3c0.7-0.2,1.32-0.5,1.86-0.9
		c0.54-0.4,0.97-0.91,1.3-1.53c0.33-0.61,0.49-1.34,0.49-2.18c0-0.82-0.14-1.5-0.41-2.05C309.13,467.03,308.76,466.58,308.3,466.21z
		"/>
	<path d="M308.3,466.21c-0.46-0.36-0.99-0.66-1.59-0.9c-0.6-0.24-1.22-0.46-1.86-0.66c-0.66-0.21-1.21-0.41-1.66-0.62
		c-0.45-0.21-0.81-0.43-1.08-0.66c-0.26-0.24-0.46-0.5-0.57-0.79c-0.12-0.29-0.18-0.63-0.18-1c0-0.49,0.1-0.92,0.3-1.28
		c0.2-0.36,0.47-0.65,0.81-0.88c0.34-0.22,0.72-0.39,1.14-0.5c0.42-0.11,0.85-0.16,1.29-0.16c0.59,0,1.17,0.12,1.71,0.37
		c0.55,0.24,0.98,0.63,1.31,1.17l1.62-1.42c-0.61-0.73-1.3-1.23-2.08-1.53c-0.77-0.29-1.63-0.44-2.57-0.44
		c-0.73,0-1.44,0.1-2.11,0.31c-0.67,0.21-1.27,0.51-1.8,0.91c-0.53,0.4-0.95,0.9-1.27,1.5c-0.31,0.6-0.47,1.3-0.47,2.11
		c0,0.7,0.1,1.29,0.31,1.79c0.21,0.5,0.5,0.93,0.87,1.28c0.37,0.35,0.8,0.65,1.3,0.9c0.5,0.25,1.05,0.46,1.64,0.65
		c0.74,0.25,1.38,0.47,1.92,0.66c0.55,0.19,1,0.4,1.36,0.64c0.36,0.24,0.62,0.52,0.8,0.84c0.17,0.33,0.26,0.75,0.26,1.27
		c0,0.48-0.11,0.89-0.33,1.26c-0.22,0.36-0.5,0.67-0.84,0.91c-0.34,0.24-0.73,0.43-1.16,0.55c-0.43,0.13-0.86,0.19-1.28,0.19
		c-0.72,0-1.4-0.16-2.04-0.47c-0.64-0.31-1.14-0.78-1.5-1.4l-1.69,1.4c0.28,0.43,0.62,0.78,1.01,1.08c0.39,0.29,0.81,0.53,1.25,0.71
		c0.45,0.18,0.91,0.32,1.4,0.4c0.49,0.09,0.97,0.13,1.45,0.13c0.75,0,1.48-0.1,2.18-0.3c0.7-0.2,1.32-0.5,1.86-0.9
		c0.54-0.4,0.97-0.91,1.3-1.53c0.33-0.61,0.49-1.34,0.49-2.18c0-0.82-0.14-1.5-0.41-2.05C309.13,467.03,308.76,466.58,308.3,466.21z
		"/>
	<path d="M338.26,455.96h-12.94c-0.76,0-1.37,0.61-1.37,1.37v1.85c0,0.76,0.61,1.37,1.37,1.37h4.11v13.54
		c0,0.76,0.61,1.37,1.37,1.37h1.97c0.76,0,1.37-0.61,1.37-1.37v-13.54h4.11c0.76,0,1.37-0.61,1.37-1.37v-1.85
		C339.63,456.58,339.02,455.96,338.26,455.96z M338.26,459.18h-5.48v14.91h-1.97v-14.91h-5.49v-1.85h12.94V459.18z"/>
	<polygon points="325.32,459.18 330.8,459.18 330.8,474.1 332.77,474.1 332.77,459.18 338.26,459.18 338.26,457.34 325.32,457.34 	
		"/>
	<polygon points="325.32,459.18 330.8,459.18 330.8,474.1 332.77,474.1 332.77,459.18 338.26,459.18 338.26,457.34 325.32,457.34 	
		"/>
	<path d="M361.56,456.8c-0.21-0.51-0.71-0.84-1.27-0.84h-1.85c-0.55,0-1.04,0.32-1.26,0.82l-7.31,16.76
		c-0.19,0.43-0.14,0.92,0.11,1.3c0.25,0.39,0.69,0.62,1.15,0.62h2.23c0.55,0,1.05-0.33,1.27-0.85l1.36-3.27h6.46l1.34,3.27
		c0.21,0.51,0.71,0.85,1.27,0.85h2.3c0.46,0,0.89-0.23,1.14-0.61c0.25-0.38,0.3-0.86,0.12-1.29L361.56,456.8z M365.05,474.1
		l-1.69-4.12h-8.3l-1.71,4.12h-2.23l7.31-16.76h1.85l7.06,16.76H365.05z"/>
	<path d="M359.28,459.89l-3.45,8.24h6.77l-3.28-8.24H359.28z M357.9,466.76l1.38-3.29l1.31,3.29H357.9z"/>
	<path d="M358.44,457.34l-7.31,16.76h2.23l1.71-4.12h8.3l1.69,4.12h2.3l-7.06-16.76H358.44z M355.84,468.13l3.45-8.24h0.05
		l3.28,8.24H355.84z"/>
	<path d="M358.44,457.34l-7.31,16.76h2.23l1.71-4.12h8.3l1.69,4.12h2.3l-7.06-16.76H358.44z M355.84,468.13l3.45-8.24h0.05
		l3.28,8.24H355.84z"/>
	<path d="M392.94,455.96h-1.97c-0.76,0-1.37,0.61-1.37,1.37v10.09c0,0.56-0.06,1.12-0.18,1.66c-0.1,0.46-0.27,0.87-0.51,1.22
		c-0.2,0.3-0.47,0.54-0.81,0.73c-0.7,0.36-2.16,0.36-2.83,0c-0.35-0.19-0.62-0.43-0.83-0.73c-0.23-0.35-0.4-0.75-0.5-1.21
		c-0.12-0.54-0.18-1.1-0.18-1.67v-10.09c0-0.76-0.61-1.37-1.37-1.37h-1.97c-0.76,0-1.37,0.61-1.37,1.37v10.37
		c0,1.04,0.13,2.04,0.39,2.96c0.27,1,0.72,1.89,1.32,2.65c0.62,0.79,1.44,1.43,2.44,1.89c0.98,0.45,2.15,0.68,3.48,0.68
		c1.33,0,2.5-0.23,3.49-0.68c0.99-0.46,1.81-1.1,2.43-1.89c0.6-0.76,1.05-1.65,1.32-2.65c0.26-0.94,0.39-1.94,0.39-2.97v-10.37
		C394.32,456.58,393.7,455.96,392.94,455.96z M392.94,467.71c0,0.92-0.11,1.78-0.34,2.6c-0.23,0.82-0.59,1.54-1.08,2.17
		c-0.49,0.62-1.14,1.12-1.93,1.49c-0.8,0.37-1.77,0.55-2.91,0.55c-1.14,0-2.11-0.19-2.91-0.55c-0.8-0.37-1.44-0.87-1.93-1.49
		c-0.49-0.62-0.85-1.34-1.08-2.17c-0.23-0.82-0.34-1.69-0.34-2.6v-10.37h1.97v10.09c0,0.68,0.07,1.33,0.21,1.96
		c0.14,0.63,0.37,1.19,0.7,1.68c0.33,0.49,0.77,0.88,1.31,1.17c0.55,0.29,1.23,0.44,2.06,0.44c0.83,0,1.52-0.15,2.06-0.44
		c0.55-0.29,0.98-0.68,1.31-1.17c0.33-0.49,0.56-1.05,0.7-1.68c0.14-0.63,0.21-1.28,0.21-1.96v-10.09h1.97V467.71z"/>
	<path d="M390.97,467.42c0,0.68-0.07,1.33-0.21,1.96c-0.14,0.63-0.37,1.19-0.7,1.68c-0.33,0.49-0.77,0.88-1.31,1.17
		c-0.55,0.29-1.24,0.44-2.06,0.44c-0.83,0-1.52-0.15-2.06-0.44c-0.55-0.29-0.99-0.68-1.31-1.17c-0.33-0.49-0.56-1.05-0.7-1.68
		c-0.14-0.63-0.21-1.28-0.21-1.96v-10.09h-1.97v10.37c0,0.92,0.11,1.78,0.34,2.6c0.23,0.82,0.59,1.54,1.08,2.17
		c0.49,0.62,1.14,1.12,1.93,1.49c0.8,0.37,1.76,0.55,2.91,0.55c1.14,0,2.11-0.19,2.91-0.55c0.8-0.37,1.44-0.87,1.93-1.49
		c0.49-0.62,0.85-1.34,1.08-2.17c0.23-0.82,0.34-1.69,0.34-2.6v-10.37h-1.97V467.42z"/>
	<path d="M390.97,467.42c0,0.68-0.07,1.33-0.21,1.96c-0.14,0.63-0.37,1.19-0.7,1.68c-0.33,0.49-0.77,0.88-1.31,1.17
		c-0.55,0.29-1.24,0.44-2.06,0.44c-0.83,0-1.52-0.15-2.06-0.44c-0.55-0.29-0.99-0.68-1.31-1.17c-0.33-0.49-0.56-1.05-0.7-1.68
		c-0.14-0.63-0.21-1.28-0.21-1.96v-10.09h-1.97v10.37c0,0.92,0.11,1.78,0.34,2.6c0.23,0.82,0.59,1.54,1.08,2.17
		c0.49,0.62,1.14,1.12,1.93,1.49c0.8,0.37,1.76,0.55,2.91,0.55c1.14,0,2.11-0.19,2.91-0.55c0.8-0.37,1.44-0.87,1.93-1.49
		c0.49-0.62,0.85-1.34,1.08-2.17c0.23-0.82,0.34-1.69,0.34-2.6v-10.37h-1.97V467.42z"/>
	<path d="M417.24,467.2c0.75-0.32,1.39-0.76,1.92-1.31c0.99-1.02,1.49-2.34,1.49-3.94c0-1.31-0.27-2.39-0.81-3.22
		c-0.52-0.81-1.21-1.43-2.06-1.87c-0.77-0.39-1.64-0.64-2.57-0.75c-0.85-0.1-1.7-0.15-2.55-0.15h-4.24c-0.76,0-1.37,0.61-1.37,1.37
		v16.76c0,0.76,0.61,1.37,1.37,1.37h1.97c0.76,0,1.37-0.61,1.37-1.37v-6.16h0.38l4.1,6.86c0.25,0.41,0.7,0.67,1.18,0.67h2.41
		c0.5,0,0.95-0.27,1.2-0.7c0.24-0.43,0.23-0.96-0.02-1.39L417.24,467.2z M417.42,474.1l-4.5-7.53h-2.53v7.53h-1.97v-16.76h4.24
		c0.8,0,1.59,0.05,2.38,0.14c0.79,0.09,1.49,0.3,2.12,0.61c0.63,0.32,1.13,0.78,1.52,1.39c0.39,0.61,0.59,1.43,0.59,2.47
		c0,1.23-0.37,2.22-1.1,2.98c-0.74,0.76-1.75,1.24-3.05,1.44l4.71,7.72H417.42z"/>
	<path d="M416.69,463.55c0.32-0.37,0.48-0.9,0.48-1.6c0-0.6-0.12-1.08-0.35-1.44c-0.24-0.36-0.54-0.64-0.92-0.84
		c-0.38-0.2-0.81-0.33-1.29-0.39c-0.48-0.06-0.96-0.09-1.44-0.09h-2.77v5.54h1.76c0.55,0,1.11-0.01,1.7-0.05
		c0.59-0.03,1.12-0.13,1.62-0.31C415.96,464.19,416.36,463.92,416.69,463.55z M413.77,463.31c-0.56,0.03-1.1,0.04-1.62,0.04h-0.38
		v-2.8h1.39c0.43,0,0.85,0.03,1.26,0.09c0.32,0.04,0.61,0.13,0.86,0.26c0.16,0.08,0.28,0.19,0.39,0.36c0.04,0.06,0.13,0.25,0.13,0.7
		c0,0.39-0.07,0.61-0.14,0.7c-0.16,0.19-0.37,0.33-0.64,0.42C414.64,463.2,414.24,463.28,413.77,463.31z"/>
	<path d="M418.17,464.93c0.73-0.76,1.1-1.75,1.1-2.98c0-1.04-0.2-1.87-0.59-2.47c-0.39-0.61-0.9-1.07-1.52-1.39
		c-0.62-0.31-1.33-0.52-2.12-0.61c-0.79-0.09-1.58-0.14-2.38-0.14h-4.24v16.76h1.97v-7.53h2.53l4.5,7.53h2.41l-4.71-7.72
		C416.42,466.17,417.44,465.69,418.17,464.93z M412.15,464.72h-1.76v-5.54h2.77c0.48,0,0.96,0.03,1.44,0.09
		c0.48,0.07,0.91,0.2,1.29,0.39c0.38,0.2,0.69,0.48,0.92,0.84c0.23,0.36,0.35,0.84,0.35,1.44c0,0.69-0.16,1.23-0.48,1.6
		c-0.32,0.37-0.73,0.64-1.22,0.82c-0.49,0.17-1.03,0.28-1.62,0.31C413.26,464.71,412.7,464.72,412.15,464.72z"/>
	<path d="M418.17,464.93c0.73-0.76,1.1-1.75,1.1-2.98c0-1.04-0.2-1.87-0.59-2.47c-0.39-0.61-0.9-1.07-1.52-1.39
		c-0.62-0.31-1.33-0.52-2.12-0.61c-0.79-0.09-1.58-0.14-2.38-0.14h-4.24v16.76h1.97v-7.53h2.53l4.5,7.53h2.41l-4.71-7.72
		C416.42,466.17,417.44,465.69,418.17,464.93z M412.15,464.72h-1.76v-5.54h2.77c0.48,0,0.96,0.03,1.44,0.09
		c0.48,0.07,0.91,0.2,1.29,0.39c0.38,0.2,0.69,0.48,0.92,0.84c0.23,0.36,0.35,0.84,0.35,1.44c0,0.69-0.16,1.23-0.48,1.6
		c-0.32,0.37-0.73,0.64-1.22,0.82c-0.49,0.17-1.03,0.28-1.62,0.31C413.26,464.71,412.7,464.72,412.15,464.72z"/>
	<path d="M443.9,456.8c-0.21-0.51-0.71-0.84-1.27-0.84h-1.85c-0.55,0-1.04,0.32-1.26,0.82l-7.31,16.76
		c-0.19,0.43-0.14,0.92,0.11,1.3c0.25,0.39,0.69,0.62,1.15,0.62h2.23c0.55,0,1.05-0.33,1.27-0.85l1.36-3.27h6.46l1.34,3.27
		c0.21,0.52,0.71,0.85,1.27,0.85h2.3c0.46,0,0.89-0.23,1.14-0.61c0.25-0.38,0.3-0.86,0.12-1.29L443.9,456.8z M447.39,474.1
		l-1.69-4.12h-8.3l-1.71,4.12h-2.23l7.31-16.76h1.85l7.06,16.76H447.39z"/>
	<path d="M441.63,459.89l-3.45,8.24h6.77l-3.28-8.24H441.63z M440.24,466.76l1.38-3.29l1.31,3.29H440.24z"/>
	<path d="M440.78,457.34l-7.31,16.76h2.23l1.71-4.12h8.3l1.69,4.12h2.3l-7.06-16.76H440.78z M438.18,468.13l3.45-8.24h0.05
		l3.28,8.24H438.18z"/>
	<path d="M440.78,457.34l-7.31,16.76h2.23l1.71-4.12h8.3l1.69,4.12h2.3l-7.06-16.76H440.78z M438.18,468.13l3.45-8.24h0.05
		l3.28,8.24H438.18z"/>
	<path d="M474.71,472.72v-0.23c-0.14,0.07-0.3,0.11-0.47,0.13l0.07,0.1H474.71z"/>
	<path d="M463.34,458.71v0.23c0.14-0.07,0.3-0.11,0.46-0.13l-0.07-0.1H463.34z"/>
	<path d="M476.08,455.96h-1.97c-0.76,0-1.37,0.61-1.37,1.37v9.58l-7.15-10.36c-0.26-0.37-0.68-0.59-1.13-0.59h-2.48
		c-0.76,0-1.37,0.61-1.37,1.37v16.76c0,0.76,0.61,1.37,1.37,1.37h1.97c0.76,0,1.37-0.61,1.37-1.37v-9.58l7.15,10.36
		c0.26,0.37,0.68,0.59,1.13,0.59h2.49c0.76,0,1.37-0.61,1.37-1.37v-16.76C477.45,456.58,476.84,455.96,476.08,455.96z M476.08,474.1
		h-2.49l-9.61-13.92h-0.05v13.92h-1.97v-16.76h2.48l9.61,13.92h0.05v-13.92h1.97V474.1z"/>
	<path d="M474.11,471.25h-0.05l-9.61-13.92h-2.48v16.76h1.97v-13.92h0.05l9.61,13.92h2.49v-16.76h-1.97V471.25z M463.34,458.94
		v-0.23h0.39l0.07,0.1C463.64,458.83,463.49,458.87,463.34,458.94z M474.71,472.49v0.23h-0.39l-0.07-0.1
		C474.41,472.61,474.57,472.56,474.71,472.49z"/>
	<path d="M474.11,471.25h-0.05l-9.61-13.92h-2.48v16.76h1.97v-13.92h0.05l9.61,13.92h2.49v-16.76h-1.97V471.25z M463.34,458.94
		v-0.23h0.39l0.07,0.1C463.64,458.83,463.49,458.87,463.34,458.94z M474.71,472.49v0.23h-0.39l-0.07-0.1
		C474.41,472.61,474.57,472.56,474.71,472.49z"/>
	<path d="M502.94,455.96H490c-0.76,0-1.37,0.61-1.37,1.37v1.85c0,0.76,0.61,1.37,1.37,1.37h4.11v13.54c0,0.76,0.61,1.37,1.37,1.37
		h1.97c0.76,0,1.37-0.61,1.37-1.37v-13.54h4.11c0.76,0,1.37-0.61,1.37-1.37v-1.85C504.31,456.58,503.7,455.96,502.94,455.96z
		 M502.94,459.18h-5.48v14.91h-1.97v-14.91H490v-1.85h12.94V459.18z"/>
	<polygon points="490,459.18 495.49,459.18 495.49,474.1 497.46,474.1 497.46,459.18 502.94,459.18 502.94,457.34 490,457.34 	"/>
	<polygon points="490,459.18 495.49,459.18 495.49,474.1 497.46,474.1 497.46,459.18 502.94,459.18 502.94,457.34 490,457.34 	"/>
	<path d="M529.35,470.88h-7.51v-3.22h6.53c0.76,0,1.37-0.61,1.37-1.37v-1.85c0-0.76-0.61-1.37-1.37-1.37h-6.53v-2.51h7.09
		c0.76,0,1.37-0.61,1.37-1.37v-1.84c0-0.76-0.61-1.37-1.37-1.37H518.5c-0.76,0-1.37,0.61-1.37,1.37v16.76
		c0,0.76,0.61,1.37,1.37,1.37h10.85c0.76,0,1.37-0.61,1.37-1.37v-1.85C530.72,471.49,530.1,470.88,529.35,470.88z M529.35,474.1
		h-10.85v-16.76h10.43v1.85h-8.46v5.26h7.9v1.85h-7.9v5.96h8.88V474.1z"/>
	<polygon points="520.46,466.29 528.36,466.29 528.36,464.44 520.46,464.44 520.46,459.18 528.93,459.18 528.93,457.34 
		518.49,457.34 518.49,474.1 529.35,474.1 529.35,472.25 520.46,472.25 	"/>
	<polygon points="520.46,466.29 528.36,466.29 528.36,464.44 520.46,464.44 520.46,459.18 528.93,459.18 528.93,457.34 
		518.49,457.34 518.49,474.1 529.35,474.1 529.35,472.25 520.46,472.25 	"/>
	<g>
		<path d="M341.96,305.69c-35.9,0-52.24,28.43-52.24,54.85s15.98,54.85,51.06,54.85c30.76,0,52.25-23.5,52.25-57.15
			C393.02,326.32,372.98,305.69,341.96,305.69z M359.21,394.6c-3.31,3.89-8.33,6.31-13.77,6.62c-4.02,0.21-7.98-0.66-11.4-2.58
			c-10.88-6.09-16.9-21.01-18.76-31.94c-2.64-15.6-0.95-36.45,12.54-43.87c3.09-1.7,6.8-2.6,10.73-2.6
			c17.47,0,29.68,17.58,29.68,42.76C368.22,367.92,367.58,384.77,359.21,394.6z"/>
	</g>
	<path d="M345.56,273.07c-0.12,0-1,0.02-2.38,0.05c-5.09,0.13-16.99,0.42-23.21,0.42h-81.2c-8.18,0-18.49-0.3-22.89-0.42
		c-1.17-0.03-1.91-0.05-2.06-0.05c-3.41,0-3.78,6.72-3.78,9.61c0,2.82,0.36,9.36,3.65,9.36c4.15,0,34.36-0.29,41.23-0.36v75.52
		c0,15.99,0,58.45-0.8,65.79c-0.09,0.76,0.05,2.19,1.9,3.36c2.17,1.37,6.35,2.05,10.51,2.05c4.09,0,8.14-0.66,10.24-1.99
		c1.77-1.13,1.89-2.5,1.8-3.2c-0.83-7.67-1.01-51.32-1.01-66v-75.55l35.67-0.24c5.9,0.03,13.02,0.07,19.15,0.11
		c6.24,0.04,11.45,0.08,13.31,0.08c3.33,0,3.69-6.34,3.69-9.06C349.37,279.7,349,273.07,345.56,273.07z"/>
	<path d="M532.9,348.65l-5.43-3.05c-10.25-5.76-11.05-10.96-10.39-15.73c0.48-3.44,2.25-5.89,5.27-7.27
		c6-2.73,15.84-0.81,21.27,2.71c0.01,0,0.01,0.01,0.02,0.01l0.81,0.53c0.75,0.48,1.43,0.94,2.04,1.37c0,0,0.29,0.2,0.29,0.2
		c1.3,0.89,2.34,1.59,3.41,2.08l0.57,0.24c0.17,0.07,0.35,0.11,0.53,0.11h0.53c5.33-0.01,5.75-9.19,5.79-10.23
		c0.14-4.52-2.91-8.22-9.04-11c-4.04-1.82-7.84-3.22-16.77-3.22c-21.64,0-37.35,12.59-37.35,29.92c0,1.42,0.08,2.73,0.23,3.98
		c1.77,14.48,14.97,22.04,26.61,28.71c1.48,0.85,2.93,1.68,4.32,2.5c10.56,6.28,10.56,12.83,10.56,17.16
		c0,7.26-5.47,11.6-14.64,11.6c-7.68,0-13.18-2.85-19.08-6.28c-1.99-1.17-3.28-2-4.22-2.62c-1.77-1.14-2.93-1.9-4.78-1.9
		c-1.48,0-2.85,0.79-3.64,2.11c-1.36,2.25-0.9,5.2-0.35,7.52c2.17,9.17,8.09,12.48,16.31,14.63c4.98,1.3,9.62,1.97,13.8,1.97
		c6.88,0,16.89-0.63,24.41-6.04c10.17-7.22,14.9-15.92,14.9-27.38C558.88,366.17,548.94,357.59,532.9,348.65z"/>
	<path d="M539.55,261.5c-1.59-3.5-9.19-2.76-10.05-2.67c-6.68,0.74-11.79,5.88-16.3,10.41l-1.53,1.53
		c-4.51,4.44-8.95,8.95-13.4,13.46l-2.95,2.99c-17.21,17.43-34.4,34.87-51.6,52.32l-18.32,18.58c-0.02-6.82-0.05-22.38-0.06-29.99
		c0.1-12.16,0.29-15.13,0.66-18.59c0.09-0.8-0.04-2.32-1.99-3.54c-3.92-2.46-13.83-2.49-17.68-0.05c-1.85,1.17-1.97,2.63-1.88,3.37
		c0.44,4.24,0.68,11.72,0.82,25.01l-0.02,79.87c-0.1,12.35-0.29,15.37-0.67,18.89c-0.09,0.8,0.04,2.32,1.98,3.54
		c3.95,2.48,13.94,2.51,17.81,0.05c1.84-1.17,1.97-2.62,1.88-3.36c-0.47-4.52-0.71-12.58-0.85-27.81l-0.01-31.15
		c2.08,2.31,4.16,4.62,6.24,6.93c8.94,9.91,19.34,21.41,29.62,32.48c11.75,12.66,22.83,23.28,39.46,25.06l0.51,0.06
		c1.41,0.16,4.02,0.46,7.16,0.46c1.81,0,3.8-0.1,5.83-0.38l0.43-0.06c2.1-0.25,6-0.73,6.59-3.4c0.74-3.39-3.73-4.68-5.94-5.32
		c-17.1-5.04-25.36-12.67-36.02-23.74c-0.54-0.56-1.8-1.83-3.57-3.6c-21.61-21.64-33.2-34.16-34.46-37.24
		c3.82-4.38,26.32-29.65,48.54-52.41c19.89-20.37,39.54-38.71,47.06-45.66l0.29-0.26C539.5,265.09,540.3,263.15,539.55,261.5z"/>
	<g>
		<path fill="#FFFFFF" d="M245.71,464.72h1.76c0.55,0,1.11-0.01,1.7-0.05c0.59-0.03,1.12-0.13,1.62-0.31
			c0.49-0.17,0.9-0.45,1.22-0.82c0.32-0.37,0.48-0.9,0.48-1.6c0-0.6-0.12-1.08-0.35-1.44c-0.23-0.36-0.54-0.64-0.92-0.84
			c-0.38-0.2-0.81-0.33-1.29-0.39c-0.48-0.06-0.96-0.09-1.44-0.09h-2.77V464.72z M243.74,457.34h4.24c0.8,0,1.59,0.05,2.38,0.14
			c0.79,0.09,1.49,0.3,2.12,0.61c0.63,0.32,1.13,0.78,1.52,1.39c0.39,0.61,0.59,1.43,0.59,2.47c0,1.23-0.37,2.22-1.1,2.98
			c-0.74,0.76-1.75,1.24-3.05,1.44l4.71,7.72h-2.41l-4.5-7.53h-2.53v7.53h-1.97V457.34z"/>
		<polygon fill="#FFFFFF" points="271.47,457.34 281.9,457.34 281.9,459.18 273.44,459.18 273.44,464.44 281.34,464.44 
			281.34,466.29 273.44,466.29 273.44,472.25 282.32,472.25 282.32,474.1 271.47,474.1 		"/>
		<path fill="#FFFFFF" d="M307.92,460.3c-0.33-0.54-0.77-0.93-1.31-1.17c-0.55-0.24-1.12-0.37-1.71-0.37
			c-0.44,0-0.87,0.06-1.29,0.16c-0.42,0.11-0.8,0.28-1.14,0.5c-0.34,0.22-0.61,0.51-0.81,0.88c-0.2,0.36-0.3,0.79-0.3,1.28
			c0,0.38,0.06,0.71,0.18,1c0.12,0.29,0.31,0.56,0.57,0.79c0.27,0.24,0.63,0.46,1.08,0.66c0.45,0.21,1.01,0.41,1.66,0.62
			c0.64,0.21,1.26,0.43,1.86,0.66c0.6,0.24,1.13,0.54,1.59,0.9c0.46,0.36,0.83,0.82,1.1,1.36c0.27,0.54,0.41,1.23,0.41,2.05
			c0,0.84-0.16,1.56-0.49,2.18c-0.33,0.62-0.76,1.13-1.3,1.53c-0.54,0.4-1.16,0.7-1.86,0.9c-0.7,0.2-1.43,0.3-2.18,0.3
			c-0.48,0-0.97-0.04-1.45-0.13c-0.48-0.09-0.95-0.22-1.4-0.4c-0.44-0.18-0.86-0.42-1.25-0.71c-0.39-0.29-0.73-0.65-1.01-1.08
			l1.69-1.4c0.36,0.62,0.86,1.08,1.5,1.4c0.64,0.32,1.32,0.47,2.04,0.47c0.42,0,0.85-0.06,1.28-0.19c0.43-0.13,0.82-0.31,1.16-0.55
			c0.34-0.24,0.63-0.55,0.84-0.91c0.22-0.36,0.33-0.78,0.33-1.26c0-0.52-0.09-0.94-0.26-1.27c-0.17-0.32-0.44-0.6-0.8-0.84
			c-0.36-0.24-0.81-0.45-1.36-0.64c-0.55-0.19-1.19-0.41-1.92-0.66c-0.59-0.19-1.14-0.41-1.64-0.65c-0.5-0.24-0.93-0.54-1.3-0.9
			c-0.37-0.35-0.66-0.78-0.87-1.28c-0.21-0.5-0.31-1.09-0.31-1.79c0-0.8,0.16-1.51,0.47-2.11c0.31-0.6,0.73-1.1,1.27-1.5
			c0.53-0.4,1.13-0.7,1.8-0.91c0.67-0.21,1.38-0.31,2.11-0.31c0.94,0,1.79,0.15,2.57,0.44c0.77,0.29,1.46,0.8,2.08,1.53
			L307.92,460.3z"/>
		<polygon fill="#FFFFFF" points="338.26,459.18 332.77,459.18 332.77,474.1 330.8,474.1 330.8,459.18 325.32,459.18 325.32,457.34 
			338.26,457.34 		"/>
		<path fill="#FFFFFF" d="M359.33,459.89h-0.05l-3.45,8.24h6.77L359.33,459.89z M358.44,457.34h1.85l7.06,16.76h-2.3l-1.69-4.12
			h-8.3l-1.71,4.12h-2.23L358.44,457.34z"/>
		<path fill="#FFFFFF" d="M392.94,467.71c0,0.92-0.11,1.78-0.34,2.6c-0.23,0.82-0.59,1.54-1.08,2.17c-0.49,0.62-1.14,1.12-1.93,1.49
			c-0.8,0.37-1.77,0.55-2.91,0.55c-1.14,0-2.11-0.19-2.91-0.55c-0.8-0.37-1.44-0.87-1.93-1.49c-0.49-0.62-0.85-1.34-1.08-2.17
			c-0.23-0.82-0.34-1.69-0.34-2.6v-10.37h1.97v10.09c0,0.68,0.07,1.33,0.21,1.96c0.14,0.63,0.37,1.19,0.7,1.68
			c0.33,0.49,0.77,0.88,1.31,1.17c0.55,0.29,1.23,0.44,2.06,0.44c0.83,0,1.52-0.15,2.06-0.44c0.55-0.29,0.98-0.68,1.31-1.17
			c0.33-0.49,0.56-1.05,0.7-1.68c0.14-0.63,0.21-1.28,0.21-1.96v-10.09h1.97V467.71z"/>
		<path fill="#FFFFFF" d="M410.39,464.72h1.76c0.55,0,1.11-0.01,1.7-0.05c0.59-0.03,1.12-0.13,1.62-0.31
			c0.49-0.17,0.9-0.45,1.22-0.82c0.32-0.37,0.48-0.9,0.48-1.6c0-0.6-0.12-1.08-0.35-1.44c-0.24-0.36-0.54-0.64-0.92-0.84
			c-0.39-0.2-0.81-0.33-1.29-0.39c-0.48-0.06-0.96-0.09-1.44-0.09h-2.77V464.72z M408.42,457.34h4.24c0.8,0,1.59,0.05,2.38,0.14
			c0.79,0.09,1.49,0.3,2.12,0.61c0.63,0.32,1.13,0.78,1.52,1.39c0.39,0.61,0.59,1.43,0.59,2.47c0,1.23-0.37,2.22-1.1,2.98
			c-0.74,0.76-1.75,1.24-3.05,1.44l4.71,7.72h-2.41l-4.5-7.53h-2.53v7.53h-1.97V457.34z"/>
		<path fill="#FFFFFF" d="M441.67,459.89h-0.05l-3.45,8.24h6.77L441.67,459.89z M440.78,457.34h1.85l7.06,16.76h-2.3l-1.69-4.12
			h-8.3l-1.71,4.12h-2.23L440.78,457.34z"/>
		<polygon fill="#FFFFFF" points="461.97,457.34 464.45,457.34 474.06,471.25 474.11,471.25 474.11,457.34 476.08,457.34 
			476.08,474.1 473.6,474.1 463.99,460.18 463.94,460.18 463.94,474.1 461.97,474.1 		"/>
		<polygon fill="#FFFFFF" points="502.94,459.18 497.46,459.18 497.46,474.1 495.49,474.1 495.49,459.18 490,459.18 490,457.34 
			502.94,457.34 		"/>
		<polygon fill="#FFFFFF" points="518.49,457.34 528.93,457.34 528.93,459.18 520.46,459.18 520.46,464.44 528.36,464.44 
			528.36,466.29 520.46,466.29 520.46,472.25 529.35,472.25 529.35,474.1 518.49,474.1 		"/>
		<path fill="#FFFFFF" d="M345.52,402.59c-4.18,0.24-8.45-0.68-12.15-2.75c-10.94-6.13-17.39-20.84-19.44-32.91
			c-2.48-14.64-1.53-37.18,13.23-45.3c3.48-1.92,7.45-2.77,11.4-2.77c18.28,0,31.05,18.15,31.05,44.13c0,10.03-2.18,24.08-9.34,32.5
			C356.51,399.9,351.08,402.27,345.52,402.59 M341.96,307.06c-34.95,0-50.87,27.72-50.87,53.48c0,25.75,15.55,53.48,49.69,53.48
			c29.95,0,50.87-22.94,50.87-55.77C391.65,327.15,372.14,307.06,341.96,307.06"/>
		<path fill="#FFFFFF" d="M255.48,433.16c0.81-7.41,0.81-49.89,0.81-65.95V290.3c0,0-37.92,0.37-42.6,0.37
			c-3.06,0-3.06-16.23,0.12-16.23c0.72,0,14.58,0.47,24.95,0.47h81.2c7.9,0,25.01-0.47,25.58-0.47c3.19,0,3.28,15.79,0.13,15.79
			c-3.7,0-20.56-0.13-32.46-0.18l-37.05,0.25v76.91c0,16.06,0.2,58.54,1.02,66.15C277.81,438.3,254.87,438.3,255.48,433.16"/>
		<path fill="#FFFFFF" d="M543.18,407.53c-7.19,5.18-16.92,5.79-23.61,5.79c-4.51,0-9.09-0.78-13.45-1.92
			c-7.91-2.07-13.29-5.05-15.32-13.62c-0.47-1.98-0.94-4.64,0.19-6.49c0.55-0.9,1.47-1.45,2.46-1.45c1.44,0,2.36,0.6,4.03,1.68
			c0.95,0.62,2.26,1.47,4.27,2.65c6.07,3.54,11.75,6.47,19.77,6.47c9.88,0,16.01-4.97,16.01-12.97c0-4.79-0.18-11.77-11.22-18.34
			c-11.89-7.07-28.36-14.58-30.27-30.2c-0.16-1.26-0.22-2.54-0.22-3.81c0-16.54,15.13-28.55,35.98-28.55c8.65,0,12.32,1.34,16.2,3.1
			c4.05,1.83,8.39,4.77,8.24,9.7c-0.08,2.53-0.97,8.9-4.41,8.9h-0.53l-0.57-0.24c-0.96-0.44-1.98-1.14-3.28-2.02
			c-0.68-0.46-1.43-0.99-2.26-1.52c0,0-0.82-0.53-0.82-0.53c-8.01-5.19-26.8-7.8-28.65,5.52c-0.65,4.72-0.19,10.79,11.07,17.12
			l5.43,3.05c16.75,9.34,25.28,17.52,25.28,31.42C557.51,392.24,552.95,400.59,543.18,407.53"/>
		<path fill="#FFFFFF" d="M514.04,437.58c-5.88,0.81-11.4,0.05-13.17-0.14c-16.7-1.78-27.68-12.85-38.6-24.62
			c-9.96-10.73-19.79-21.59-29.6-32.46c-2.88-3.19-5.76-6.39-8.64-9.59c0,0,0.01,17.85,0.01,34.74c0.14,15.82,0.4,23.57,0.85,27.96
			c0.59,4.94-19.54,4.94-18.95-0.21c0.37-3.48,0.57-6.46,0.68-19.04c0.01-28.29,0.02-61.76,0.02-79.88
			c-0.14-13.95-0.4-21.03-0.82-25.15c-0.59-4.93,19.41-4.93,18.82,0.21c-0.37,3.45-0.56,6.42-0.67,18.73
			c0.01,9.93,0.07,33.34,0.07,33.34c24.09-24.43,48.17-48.86,72.26-73.28c5.43-5.5,10.84-11.01,16.33-16.43
			c4.71-4.64,10.07-10.78,17.01-11.55c4.62-0.51,12.74,0.36,6.58,6.05c-1.98,1.83-24.53,22.55-47.4,45.97
			c-22.93,23.49-46.19,49.67-48.94,52.87c-2.04,2.39,34.82,38.54,38.42,42.29c10.68,11.1,19.23,18.98,36.62,24.1
			c1.46,0.43,5.49,1.43,4.99,3.71C519.49,437.09,515.41,437.39,514.04,437.58"/>
	</g>
	<g>
		<g>
			<g>
				<g>
					<path fill="#FFFFFF" d="M607.01,527.43H167.85V87.73h439.16V527.43z M171.91,523.37h431.04V91.79H171.91V523.37z"/>
				</g>
			</g>
		</g>
	</g>
	<g>
		<g>
			<path fill="#FFFFFF" d="M616.59,504.48c0-3,0.56-5.79,1.69-8.36c1.13-2.57,2.64-4.8,4.56-6.67c1.91-1.88,4.14-3.35,6.69-4.42
				c2.55-1.07,5.27-1.6,8.17-1.6c2.85,0,5.56,0.54,8.13,1.6c2.57,1.07,4.81,2.53,6.73,4.39c1.91,1.86,3.43,4.05,4.56,6.59
				c1.13,2.53,1.69,5.28,1.69,8.25c0,3-0.56,5.79-1.69,8.36c-1.12,2.57-2.64,4.8-4.56,6.67c-1.92,1.88-4.16,3.35-6.73,4.42
				c-2.57,1.07-5.28,1.6-8.13,1.6c-2.89,0-5.61-0.54-8.17-1.6c-2.55-1.07-4.78-2.53-6.69-4.39c-1.92-1.86-3.43-4.05-4.56-6.59
				C617.15,510.19,616.59,507.45,616.59,504.48z M619.96,504.48c0,2.52,0.46,4.85,1.38,7.01c0.92,2.16,2.18,4.04,3.8,5.63
				c1.61,1.59,3.49,2.85,5.63,3.77c2.14,0.92,4.45,1.38,6.93,1.38c2.48,0,4.78-0.46,6.92-1.38c2.14-0.92,4.01-2.18,5.63-3.8
				c1.62-1.62,2.88-3.52,3.8-5.71c0.92-2.2,1.38-4.57,1.38-7.12c0-2.52-0.46-4.86-1.38-7.04c-0.92-2.18-2.18-4.06-3.8-5.66
				c-1.61-1.59-3.49-2.84-5.63-3.74c-2.14-0.9-4.45-1.35-6.92-1.35c-2.48,0-4.79,0.46-6.93,1.38c-2.14,0.92-4.01,2.18-5.63,3.77
				c-1.62,1.6-2.88,3.49-3.8,5.69C620.42,499.5,619.96,501.89,619.96,504.48z M629.87,492.38h8.89c2.93,0,5.09,0.55,6.47,1.66
				c1.39,1.11,2.08,2.88,2.08,5.32c0,2.18-0.62,3.77-1.86,4.78c-1.24,1.01-2.76,1.61-4.56,1.8l6.98,10.69h-3.66l-6.64-10.41h-4.34
				v10.41h-3.37V492.38z M633.25,503.19h4.17c0.82,0,1.63-0.03,2.42-0.08c0.79-0.06,1.49-0.22,2.11-0.48
				c0.62-0.26,1.11-0.65,1.47-1.18c0.35-0.53,0.53-1.28,0.53-2.25c0-0.82-0.16-1.49-0.48-2c-0.32-0.5-0.74-0.89-1.27-1.15
				c-0.53-0.26-1.12-0.43-1.77-0.5c-0.66-0.08-1.31-0.11-1.94-0.11h-5.24V503.19z"/>
		</g>
	</g>
</g>
</svg>
