<svg xmlns="http://www.w3.org/2000/svg" width="512" height="512">
    <path d="M243.577 506.461c-7.065-7.868-173.004-194.146-173.004-321.035C70.574 83.182 153.756 0 256.001 0s185.426 83.182 185.426 185.426c0 126.888-165.939 313.167-173.004 321.035-6.637 7.393-18.224 7.378-24.846 0z" data-original="#FF5752" class="prefix__prefix__active-path" data-old_color="#FF5752" fill="#000000"/>
    <path d="M441.426 185.426C441.426 83.182 358.244 0 256.001 0v512c4.552 0 9.106-1.843 12.423-5.539 7.063-7.867 173.002-194.146 173.002-321.035z" data-original="#DB3A3C" data-old_color="#DB3A3C" fill="#000000"/>
    <path d="M256.001 278.719c-51.442 0-93.291-41.851-93.291-93.293s41.851-93.293 93.291-93.293 93.291 41.851 93.291 93.293-41.851 93.293-93.291 93.293z" data-original="#EFEFEF" fill="#f58220"/>
    <path d="M256.001 92.134v186.585c51.442 0 93.291-41.851 93.291-93.293s-41.851-93.292-93.291-93.292z" data-original="#C5D8DF" fill="#f58220"/>
</svg>
