<?xml version="1.0" encoding="utf-8"?>
<!-- Generator: Adobe Illustrator 23.0.2, SVG Export Plug-In . SVG Version: 6.00 Build 0)  -->
<svg version="1.2" baseProfile="tiny" id="Layer_1" xmlns="http://www.w3.org/2000/svg" xmlns:xlink="http://www.w3.org/1999/xlink"
	 x="0px" y="0px" viewBox="0 0 512 512" xml:space="preserve">
<g>
	<path d="M256,146.54c-34.36,0-62.32,27.95-62.32,62.32s27.95,62.32,62.32,62.32c34.36,0,62.32-27.95,62.32-62.32
		S290.36,146.54,256,146.54z"/>
	<path d="M256,0C114.62,0,0,114.62,0,256s114.62,256,256,256s256-114.62,256-256S397.38,0,256,0z M264.3,423.3
		c-4.42,4.93-12.16,4.94-16.6,0c-4.72-5.26-115.56-129.68-115.56-214.44C132.14,140.56,187.7,85,256,85
		c68.3,0,123.86,55.56,123.86,123.86C379.86,293.62,269.02,418.04,264.3,423.3z"/>
</g>
</svg>
